<?xml version="1.0" encoding="utf-8"?>
<!-- Generator: Adobe Illustrator 28.0.0, SVG Export Plug-In . SVG Version: 6.00 Build 0)  -->
<svg version="1.1" id="Capa_1" xmlns="http://www.w3.org/2000/svg" xmlns:xlink="http://www.w3.org/1999/xlink" x="0px" y="0px"
	 viewBox="0 0 1080 1080" style="enable-background:new 0 0 1080 1080;" xml:space="preserve">
<style type="text/css">
	.st0{fill:#019C04;}
</style>
<g>
	<path class="st0" d="M233.3,511c0-54.7,0.3-109.3-0.2-164c-0.1-15.2,3.2-29.2,8.5-43.1c11.7-30.2,31.4-54,57.7-72.5
		c5.5-3.8,11.5-6.8,16.8-10.9c2.7-2,5.4-5.2,6.1-8.3c4.5-20.8,11.7-40.5,19.8-60.1c7.8-18.9,17.9-36.3,29.2-53.2
		C390,70.5,413.5,47,442.1,28.6c17-11,34.9-20.3,54.9-24.7c9.6-2.1,19.4-3.7,29.1-5c7.6-1,15.4-2.1,23.1-1.6
		c32.4,2.1,63,10.6,90.8,28c16.6,10.3,31.9,22.2,45.5,36.1C704,80.3,719,101.8,731.8,125c11,19.9,19.9,40.6,26.7,62.2
		c2.9,9,4.2,18.6,5.7,28c1.1,7,5.3,10.8,10.9,13.9c11.9,6.7,21.4,16.3,30.9,25.9c11.1,11.2,19.3,24.7,26.5,38.6
		c3.8,7.3,5.9,15.6,8.5,23.5c6.8,20.7,7.9,42,7.8,63.6c-0.4,92.7-0.2,185.3-0.1,278c0,11.8-1.3,23.2-4.8,34.5
		c-2.7,8.7-4.5,17.7-7.5,26.3c-5,14.7-13.6,27.5-23,39.7c-12.4,16.2-27.7,29.3-45.2,39.5c-9.6,5.7-20.3,9.7-30.9,13.4
		c-18.6,6.4-37.9,8.1-57.7,8c-95.3-0.3-190.6-0.1-285.9-0.1c-6.9,0-13.9,0.2-20.8-0.5c-6.4-0.7-12.7-2.6-19.1-4.1
		c-6.6-1.7-13.5-2.9-19.8-5.5c-9.6-3.9-19.3-8.1-28.2-13.5c-20.9-12.8-38-29.8-50.9-50.7c-5.5-8.9-9.7-18.8-14.1-28.4
		c-7.3-15.9-8-32.8-7.9-50.1C233.5,615,233.3,563,233.3,511z M542.8,204.6C542.8,204.6,542.8,204.6,542.8,204.6
		c51.8,0,103.7,0,155.5,0c1.2,0,2.4,0.2,3.5-0.1c2.7-0.7,5-1.5,3.5-5.4c-1.6-4.1-2.1-8.5-3.7-12.6c-5.1-12.7-10.1-25.5-15.9-37.9
		c-8-16.9-18.9-32-31-46.2c-14.1-16.7-29.9-31.5-49-42.5c-15.2-8.8-31.4-14.6-48.5-17.4c-16.5-2.8-32.9-0.4-48.6,4.9
		c-13.4,4.5-26.2,10.4-38.1,18.6c-26.7,18.4-46.6,42.6-63.1,70c-11.3,18.9-19.7,39.1-26.4,60.1c-2.1,6.8-1,8.6,6.3,8.6
		C439.1,204.6,491,204.6,542.8,204.6z M772.2,236c-1.2,12.5-2.1,23.3-3.2,34.1c-2.3,21.5-18.1,28.3-36,22.9
		c-12.4-3.7-17.4-13.5-16.3-27c0.7-9,1.7-18,2.3-27.1c0.1-1.8-0.9-3.6-1.4-5.4c-1.8,0.8-4.1,1.1-5.4,2.4
		c-8.6,8.1-14.2,17.8-15.4,29.8c-1.7,16.5,3.2,30.6,16.1,41.2c11.7,9.6,24.7,13.7,40.2,10.2c19.2-4.3,30.9-16.3,35.1-32.9
		c3.8-15.1,2.1-30.7-9.3-43.3C777.2,239.3,775,238.1,772.2,236z M372,234.5c-0.4,6.3-1,11.3-0.9,16.4c0.2,7.6,1.1,15.1,1.4,22.6
		c0.1,1.9-0.4,4-1.3,5.7c-5,10.2-12.9,14.9-24.7,15.5c-15.6,0.8-26-11.1-26.6-24.3c-0.4-9.8-1.5-19.6-2.4-29.5
		c-0.1-1.1-0.8-2.7-1.6-3.1c-0.8-0.3-2.6,0.4-3.2,1.3c-3.5,4.8-7.3,9.4-10.1,14.7c-7.5,14.2-5.1,28.2,2.3,41.7
		c6.5,11.8,16.8,18.5,29.8,22c18.3,4.8,36.5-2.6,47.4-16.3c10.9-13.7,13.4-29.3,7.2-45.8C386.2,247.2,381.4,240.2,372,234.5z
		 M609,710.4c0.2-0.4,0.4-0.7,0.5-1.1c-14.1-11.1-28.2-22.2-42.3-33.4c-6.2-4.9-12.4-9.9-18.4-15.1c-5.8-5.1-5.3-8.5,1.7-11.5
		c6.7-2.9,12-7.4,16.1-13.2c2.5-3.6,5.2-7.3,2.6-12.5c-2.8-5.8-7-9.2-13.2-8.9c-8.4,0.3-16.7,1.3-25,2.2
		c-13.5,1.5-27.1,3.1-40.6,4.7c-2.9,0.3-5.8,0.8-8.7,1.3c-6.1,1.1-11.7,1.5-15.8-4.7c-1.6-2.5-4.2-4.5-6.2-6.8
		c-7.9-9.1-15.6-18.3-23.5-27.3c-5.8-6.7-11.8-13.3-17.7-19.9c-0.9,1.6-1,2.8-0.5,3.6c3.4,5.8,6.6,11.6,10.4,17.1
		c10.2,14.7,20.8,29.2,30.9,44c4,5.9,8.8,8.1,15.7,7.5c14.8-1.3,29.5-2.2,44.3-3.4c1-0.1,1.9-0.6,2.9-0.7c8.5-0.9,17-1.9,25.5-2.6
		c0.9-0.1,2.3,0.8,2.6,1.7c0.3,0.6-0.6,2.1-1.3,2.6c-3.8,2.5-7.7,5-11.6,7.3c-5.5,3.2-7.9,7.8-6.6,14c1.4,7,6.1,12,11.8,15.6
		c19.4,12.3,39,24.2,58.5,36.1C603.6,708.3,606.4,709.2,609,710.4z M734.1,450.1c-0.3,0-0.6-0.1-0.9-0.1
		c-6.2,9.8-12.2,19.9-18.8,29.4c-6.9,9.9-13.8,19.9-24,26.9c-5.8,4-7.5,4-12.8-0.8c-4.4-3.9-8.7-8-13.3-11.7
		c-5.6-4.7-13.7-5.5-19.4-2.2c-6.7,3.9-9.1,10.2-8.7,17.4c1.2,21.2,2.7,42.4,4.2,63.6c0.2,2.4,0.7,4.8,1.1,7.2
		c0.9,5.4,1.8,10.7-3.2,15c-15.3,13-30.5,26-45.8,38.9c-1.3,1.1-3,1.8-4.4,2.7c0.5,0.7,1,1.3,1.5,2c1.7-0.4,3.5-0.5,4.9-1.3
		c17.1-9.2,33.5-19.4,48.4-31.8c5.4-4.5,11.1-9.1,11.5-16.8c0.3-6.4-0.1-12.9-0.4-19.3c-0.8-19.8-1.7-39.6-2.5-59.3
		c-0.1-1.5,0.7-3,1.1-4.6c1.6,0.5,3.5,0.6,4.8,1.6c4.2,3.1,8.3,6.4,12.3,9.7c8.2,6.8,16.7,7.9,25.2,1.2c5.9-4.7,10.5-11,15.4-16.9
		c11.1-13.4,17.5-29.3,23.3-45.5C734.2,453.7,734,451.8,734.1,450.1z M343,596.9c0.5,0.1,0.9,0.2,1.4,0.3c1.1-2.7,2-5.5,3.3-8.1
		c5.7-11.3,10.8-23,17.4-33.8c8-13.2,19.9-23,32.6-31.6c7.4-5,7.4-5.4,12.6,2.2c7.3,10.5,16.5,13.2,26.7,6.1c4.7-3.3,7-8.3,6.8-14
		c-0.6-19.4-0.9-38.9-2.4-58.2c-0.8-9.8,2.5-17.2,8.5-24c10.6-12,21.5-23.8,32.2-35.7c1.5-1.6,2.7-3.5,4.1-5.3c-0.3-0.3-0.7-0.6-1-1
		c-6.1,3.6-12.9,6.4-18.3,10.9c-10,8.1-19.6,16.7-28.6,25.9c-4.6,4.7-9.8,11-10.6,17c-1.4,11.3,0,23,0.8,34.5
		c0.8,12,2.4,23.9,3.3,35.9c0.4,5.7-4,9-9.7,7.7c-6.8-1.5-10.1-5.6-9.9-12.6c-3-0.5-6.1-0.9-9.1-1.4c-16.2,8.8-33.3,16.7-44.3,32.8
		C348.1,560.4,341,577.3,343,596.9z M294.4,531.1c0.3-0.5,0.8-0.9,1-1.5c4.4-9.8,8.1-19.9,13.3-29.2c9.3-16.8,19.1-33.4,29.3-49.7
		c12.9-20.6,28.8-39,46.1-56c17.4-17.1,36.1-32.6,56.3-46.3c3.8-2.5,7.2-5.5,10.8-8.3c-0.5-0.6-0.9-1.2-1.4-1.8
		c-46.4,17.6-83.8,47.4-113,87.5C314,457.2,298.5,491.9,294.4,531.1z M533.4,275c36.6,17.2,71.3,37.1,102.6,62.7
		c31.2,25.4,57.6,55.3,82.4,86.8c-18.9-48.3-51.1-85.8-93.8-114.2C596.9,291.9,566.7,279.1,533.4,275z M631.2,686.4
		c0.2,0.5,0.5,1,0.7,1.5c1.7-0.2,3.6,0,5-0.7c13.9-7.4,28.5-13.9,41.5-22.7c34.1-22.9,61.6-52.3,81.7-88.3
		c4.8-8.6,9.4-17.5,13.3-26.6c3.7-8.7,6.5-17.7,9.1-26.8c1.6-5.3,2.1-10.9,3.1-16.3c-0.5-0.2-1-0.4-1.5-0.6
		C750.9,581.2,699.5,641,631.2,686.4z M547.1,763.2c-9.1-4.7-18.5-8.9-27.3-14.1c-13.7-8-27.5-16-40.4-25.3
		c-15.2-10.9-29.7-22.9-44.1-35c-23.9-20.2-44.1-44-62.9-68.8c-2.6-3.5-5.5-6.8-8.2-10.2c-0.4,0.3-0.7,0.6-1.1,0.9
		c15.9,39.3,41.3,71.5,73.5,98.8C468.9,736.7,505.6,754.9,547.1,763.2z M673,488.9c0.6-0.4,1.2-0.7,1.8-1.1
		c-1.9-4.8-3.3-9.8-5.8-14.2c-11.2-19.8-22.9-39.3-38.1-56.5c-11.1-12.6-23.9-18.9-40.6-16.6c-12.5,1.7-24.9,3.9-37.3,6
		c-3.9,0.6-7.7,1.4-11.5,2.3c-6.4,1.5-12.6,3.3-19,4.4c-2.1,0.4-6.4-0.6-6.4-1.2c-0.3-2.8,0.5-5.7,1.3-8.5c0.4-1.3,1.9-2.2,2.7-3.5
		c0.6-1,0.8-2.2,1.4-3.7c-5.9,1.9-9.7,6-13.3,14.2c-0.6,1.5-0.6,3.7,0,5.3c1.8,5,5.4,7.7,11,7.1c13-1.5,26.1-3,39.1-4.4
		c11.1-1.3,22.4-1.9,33.3-3.9c9.9-1.8,17.7,0.9,24.6,7.5c17.2,16.2,31.8,34.7,46.4,53.2C666.1,479.8,669.5,484.4,673,488.9z
		 M537.6,397.7c1.3-42.1-40.4-80.8-76.9-79.2c15.9,9.4,32.6,17.4,45.5,31C519.1,363.4,528.9,379.4,537.6,397.7z M506.9,695
		c-0.4,0.4-0.7,0.8-1.1,1.2c0,0.6-0.1,1.2,0,1.7c1.7,8.3,6.8,14.7,11.8,21c10.5,13.2,23.5,23.1,39.6,27.9c9.1,2.7,18.9,3.6,28.3,5
		c1.5,0.2,3.1-0.9,4.7-1.3c0-0.6,0-1.1,0-1.7C557.1,739.5,529.3,721.4,506.9,695z M368.4,490.1c-9.3,2.8-16.1,10-22.5,17
		c-19.2,21.1-27.5,45.9-24.5,75.4c6.5-16.9,11.3-33.4,19.1-48.6C348.3,518.7,359,504.8,368.4,490.1z M757.6,447.3
		c-8.2,31.7-24.4,57.3-47.5,78.9c1.9-0.2,3.3-0.8,4.8-1.3c15-5.2,25.6-15.7,34.3-28.5c6.6-9.8,10.1-20.9,11.3-32.6
		C761,458.7,762.2,453.2,757.6,447.3z M546.5,343.6c-9.3-33.2-55.8-55.9-76.9-47.9C499.5,305.8,524.9,321.7,546.5,343.6z
		 M304.6,566.6c6.1-27.4,17.1-51.3,32.8-73C308.9,508.8,298,540,304.6,566.6z M489.3,273.5c0.2,0.6,0.1,1.6,0.5,1.8
		c22,10.1,42.1,23.2,60.8,40.1C549.5,296.3,512.5,270.3,489.3,273.5z M607.5,726.7c-12-4.9-23.9-9.1-35.2-14.6
		c-11.1-5.4-21.6-12.2-33.1-18.8C544.1,712.8,593.1,736.2,607.5,726.7z M777.5,467.8c-6.2,22.9-16,42.8-31.1,61.3
		C765.8,525,787.2,491.7,777.5,467.8z"/>
	<path class="st0" d="M150.8,944.2c2.4-4.2,4.2-7.4,6.1-10.5c10.6-18.1,39.4-20.8,53.8-5.3c2.5,2.7,5.1,5.3,1.7,9.3
		c-3.3,3.8-6.5,2.9-10,0.7c-3.5-2.1-6.8-4.6-10.6-5.9c-9.3-3.4-21.9,2.6-25.3,14c-2.7,9.1-1.1,16.8,4.4,23.4
		c6.6,8.2,16.7,10.5,28,4.6c1.8-1,4-2.2,5.9-2.1c2.3,0.1,6,1.1,6.5,2.6c0.8,2.3,0.2,6.8-1.3,7.7c-5.6,3.2-11.6,6.7-17.7,7.5
		c-15.2,1.9-28.3-2.6-36.2-16.9c-1.6-2.9-3.1-6-3.9-9.2c-0.9-3.7-1.8-5-6.2-4.3c-6.6,1-13.5,0.5-20.3,0.5c-6.8,0-13.5-0.1-20.3,0.1
		c-2.3,0.1-4.5,1.1-6.8,1.7c0.9,2.5,1.1,5.7,2.8,7.5c6.9,7.3,18.4,11.2,28.3,6.4c3-1.5,6.4-2.4,9.7-3.1c3.2-0.7,6.5,0.3,6.9,3.7
		c0.2,2.2-1.2,5.6-3,6.9c-9.9,7-21.2,9-32.9,6.2c-10.4-2.5-18.8-8.2-23.3-18.5c-3.6-8.3-4.9-16.5-2.6-25.6
		c1.7-6.6,4.3-12.3,8.8-17.1C108.2,912.4,143.4,914,150.8,944.2z M117.3,948.3C117.3,948.3,117.3,948.3,117.3,948.3
		c4.9,0,9.9,0.1,14.8,0c4.6-0.1,5.4-1.5,3.6-5.9c-3.5-8-9-11.2-18.9-11.1c-8.5,0.1-14.4,4.4-18.4,11.5c-1.7,3.2-0.2,5.3,3.5,5.4
		C107.1,948.3,112.2,948.3,117.3,948.3z"/>
	<path class="st0" d="M377.3,954.3c0-8.7-0.1-17.5,0-26.2c0.1-7.7,5.8-11.4,12-7.2c4.3,2.9,7.3,0.4,10.5-0.8
		c9.7-3.5,18.5-2.1,26.6,3.7c3,2.2,5,2.1,7.8,0c11.7-8.8,27.7-6.1,34.6-0.5c6.9,5.5,9.2,13.3,9.6,21.4c0.6,12.2,0.3,24.4,0.2,36.6
		c0,5.2-3.6,9.1-7.9,9c-4.4-0.1-6.9-3.2-7-9c-0.1-10.9,0.1-21.8-0.2-32.7c-0.1-3.8-1.3-7.8-2.7-11.4c-1.4-3.5-8.7-6.2-12.9-5.5
		c-5.3,0.9-10.6,5.3-10.9,9.9c-0.9,11.9-1.4,23.9-2,35.9c-0.1,2.1,0.1,4.3-0.2,6.4c-0.5,4-2.8,6.3-6.9,6.2c-4.1-0.1-6.1-2.5-6.3-6.7
		c-0.5-12.8-1-25.7-1.5-38.5c-0.2-5-1.9-9.4-6.8-11.6c-10-4.5-20.6,2.3-20.8,13.3c-0.2,11.4,0,22.8-0.1,34.2c0,6-2.6,9.3-7,9.4
		c-4.6,0.2-8-3.9-8.1-9.7C377.3,971.8,377.3,963,377.3,954.3z"/>
	<path class="st0" d="M661.8,954.5c0-9.1-0.1-18.2,0-27.2c0.1-7.4,5.3-10.5,11.6-6.5c4.2,2.7,7.3,0.2,10.7-0.9
		c9.2-3,17.9-2.3,25.6,3.6c3.1,2.4,5.3,2.6,8.6,0.2c12.4-9.2,32.7-6.6,38.8,4.4c2.4,4.3,4.4,9.4,4.7,14.2
		c0.7,13.2,0.3,26.4,0.3,39.6c0,5-2.7,8.1-6.6,8.4c-4,0.3-6.8-2.2-7.1-7.6c-0.4-9.7-0.3-19.5-0.5-29.2c-0.1-3.6-0.6-7.2-1-10.8
		c-0.9-7.9-7.9-11.4-14.5-11.1c-6.4,0.3-12.7,6.7-12.9,13.3c-0.3,12-0.1,24.1-0.2,36.1c0,6-2.6,9.1-7.3,9.1c-4.6,0-7.4-3.3-7.4-9.1
		c-0.1-12.2-0.3-24.4,0-36.6c0.2-7-6.1-12-12.4-12.8c-6.2-0.7-13.2,4.1-14.6,10.1c-0.6,2.7-0.8,5.6-0.8,8.3
		c-0.1,10.4-0.1,20.8-0.1,31.2c0,4-1.9,7.4-5.6,8.4c-2.2,0.6-5.5-0.6-7.3-2.2c-1.4-1.2-1.8-4.1-1.8-6.3
		C661.7,972.3,661.8,963.4,661.8,954.5C661.8,954.5,661.8,954.5,661.8,954.5z"/>
	<path class="st0" d="M221.9,939.2c0-13.5,0-27.1,0-40.6c0-5.3,2.7-9.3,6.4-9.8c4.8-0.7,7.9,1.9,8.2,7.5c0.3,7.1,0.1,14.2,0.2,21.3
		c0.1,6.2,0.6,6.5,6.1,4.1c16-7.1,32.9-3.3,41.7,9.8c2.2,3.2,3.6,7.4,3.9,11.3c0.9,11.7,1.2,23.4,1.6,35.1c0.1,2.3-0.5,4.6-1,6.8
		c-0.9,3.9-3.3,6-7.4,5.5c-4-0.5-6.2-3.1-6.3-7c-0.2-7.6,0-15.2-0.3-22.8c-0.2-5.2-0.9-10.4-1.5-15.6c-1.2-10.6-16.2-15-23.8-12.5
		c-9.5,3.2-13.7,10.4-13.3,19.1c0.4,10.1,0.1,20.1,0,30.2c-0.1,4.2-1.2,8-6.2,8.6c-4.9,0.5-8.4-3.6-8.4-9.8c-0.1-12.6,0-25.1,0-37.7
		C221.9,941.5,221.9,940.4,221.9,939.2C221.9,939.2,221.9,939.2,221.9,939.2z"/>
	<path class="st0" d="M636.6,982.9c-7.3,5-14.6,8.6-23.2,7.9c-12.9-1.1-26.2-7.7-31-22.9c-7.1-22.7,4-42.5,24.7-48.5
		c16-4.6,36.3,2.6,43,20.6c1.5,3.9,2.6,8.2,2.7,12.3c0.4,9.7,0.2,19.5,0.2,29.2c0,4-1.2,7.3-5.3,8.5c-4.1,1.2-6.9-0.7-8.5-4.6
		C639,984.4,637.7,983.8,636.6,982.9z M617.1,931.6c-11.8-0.1-22.1,10.5-22,22.9c0.1,14.6,11.7,23.1,22.3,23.2
		c11.2,0.1,22.4-11.7,22.4-23.3C639.7,942.7,628.6,931.5,617.1,931.6z"/>
	<path class="st0" d="M369.7,967.2c0,4.6,0.1,9.2,0,13.9c-0.1,4-1.9,7.5-5.8,8.8c-4,1.4-7-0.7-8.8-4.4c-1.1-2.4-2.4-2.1-4.7-1.2
		c-6.2,2.4-12.5,5.6-18.9,6.1c-15,1.2-27.9-7.6-32.6-21.8c-4.2-12.5-3.8-26,5.5-37.1c9.5-11.3,22.2-15.3,36.3-12.7
		c12.7,2.4,22.3,10.3,26.3,22.5c2.6,8.1,2.5,17.1,3.6,25.6C370.3,967.1,370,967.2,369.7,967.2z M354.9,955.1
		c-0.3-13.4-8.8-23.4-21.3-23.4c-12.9,0-22.4,9.1-22.5,22.8c-0.1,14.4,8.7,22.7,21.5,23C345.5,977.6,354.3,969.1,354.9,955.1z"/>
	<path class="st0" d="M525,960.3c-6.3,0-12.5-0.1-18.8,0c-5,0.1-6.8,3.1-3.9,7.3c5.6,8.1,18.1,13.4,28.3,8.8c3.8-1.7,8-3,12.1-3.4
		c1.8-0.2,4.7,1.9,5.5,3.7c0.7,1.5-0.4,5.1-1.7,5.9c-4.7,2.8-9.7,5.8-15,7c-13.6,3.1-26.3,0.3-36.4-9.7c-5.2-5.2-8.8-11.7-8.8-19.6
		c0-4.2-0.5-8.4-0.1-12.5c2-20.2,21.9-32.8,40.8-29.1c17.2,3.3,25.8,14.3,27,32c0.5,6.3-2.3,9.2-8.7,9.5
		C538.5,960.4,531.7,960.2,525,960.3C525,960.3,525,960.3,525,960.3z M501.8,948.2c10.6,0,20.9,0.1,31.2-0.1c1.6,0,4.6-0.6,4.7-1.3
		c0.3-2.1,0.1-4.7-0.9-6.4c-5.6-9.4-12.9-10.4-22-8.5C505.4,933.9,500.8,940.1,501.8,948.2z"/>
	<path class="st0" d="M841.3,966.1c0,5.4,0,10.9,0,16.3c0,3.6-1.5,6.6-5.1,7.6c-3.8,1.1-6.6-0.5-8.2-4.3c-1.2-2.7-2.7-2.8-5.4-1.1
		c-5.9,3.5-12.1,6.3-19.4,6.2c-16.1-0.3-26.4-8.6-31.9-22.9c-4.5-11.6-3.3-23,3.2-32.9c3.7-5.7,10-10.8,16.2-13.5
		c14.3-6.2,28.2-4.1,40.2,6.6c6.8,6,9.5,14,10.1,22.7c0.4,5.1,0.1,10.2,0.1,15.3C841.2,966.1,841.3,966.1,841.3,966.1z M783.8,954.6
		c-1.4,14.1,11.6,22.9,21.6,22.9c11.9,0,22.7-11,22.5-22.9c-0.1-12.6-10.5-22.9-22.8-23.2C795.1,931.1,782.3,941.5,783.8,954.6z"/>
	<path class="st0" d="M997,954.8c0.9,21.5-15.6,36-35.6,36c-23.7,0-36.7-15.8-36.9-37c-0.2-19.3,14.4-35.5,36.4-35.6
		C980.6,918.2,998,933.2,997,954.8z M960.9,931.5c-12.4,0-21.4,9.5-21.6,22.6c-0.2,14.6,8.9,22.9,21.3,23.4
		c12.6,0.5,23.7-10.3,22.9-23.1C982.6,942.4,976.1,932.1,960.9,931.5z"/>
	<path class="st0" d="M850.2,954.2c0-8.9,0.1-17.8,0-26.7c0-3.7,1.1-7.1,4.6-7.8c2.5-0.5,6.2,0.6,8.2,2.3c2.8,2.4,4.7,1.1,7.1,0
		c11.5-5.3,22.9-5.4,33.9,1.2c8.6,5.1,12.7,13.4,13.3,22.8c0.8,12,0.3,24.1,0.3,36.1c0,4.8-2.9,8-6.8,8.1c-4,0.1-7.9-3.7-7.9-8.4
		c-0.2-10.6-0.5-21.1,0-31.7c0.6-13.9-14.1-21-24.5-17.6c-10.1,3.3-13.2,7.2-13.3,17.9c-0.1,8.6,0.1,17.2-0.1,25.7
		c-0.1,2.7-0.8,5.5-1.2,8.2c-0.6,3.8-2.7,6-6.6,5.7c-4.1-0.3-6.2-3-6.6-6.8c-0.4-4.4-0.2-8.9-0.3-13.3
		C850.1,964.7,850.1,959.5,850.2,954.2C850.2,954.2,850.2,954.2,850.2,954.2z"/>
	<path class="st0" d="M570.9,931.1c0,11.2,0,22.4,0,33.7c0,7.1,1.7,9,8.5,10.8c3.9,1,6.7,2.8,6.5,7.8c-0.3,5.2-4.1,6-7.6,6.8
		c-7,1.6-18.4-5-20-13.8c-1.5-8.3-2.3-16.9-2.4-25.4c-0.3-17,0-34,0.2-51c0-2.7,0.6-5.9,2.2-7.7c1.7-1.8,5.1-3.2,7.5-3
		c3.1,0.3,5.1,3,5.1,6.8C570.8,907.6,570.8,919.4,570.9,931.1C570.9,931.1,570.9,931.1,570.9,931.1z"/>
	<path class="st0" d="M248.7,1059.1c-0.6-2.8-1.7-5.5-1.8-8.3c-0.3-8.6-0.3-17.2-0.3-25.7c0-4.2,1.4-6.8,6.3-5.4
		c0.6,0.2,1.4,0.3,2,0.1c7.1-3.4,13.5-2.7,19.6,2.6c0.7,0.6,3.1-0.2,4.3-1.1c4.8-3.4,10-5.3,15.6-2.6c6,2.9,9.3,7.8,9.1,14.9
		c-0.2,8.2,0,16.4,0,24.7c-4,0.1-5.3-1.3-5.3-4.4c0.1-6.4,0-12.9,0-19.3c-0.1-6.2-3.6-9.9-9.1-9.9c-6.5,0-10.1,3.5-10.2,10
		c-0.1,6.3,0.1,12.6-0.2,18.8c-0.1,1.4-1.8,2.7-2.8,4.1c-0.8-1.4-2.2-2.7-2.3-4.1c-0.3-5.6,0.2-11.3-0.2-16.8
		c-0.8-9.2-4.8-12.4-11.2-12c-5,0.3-8,3.1-8.1,8.1c-0.2,6.6,0,13.2-0.3,19.8c-0.1,2.3-1.5,4.6-2.2,6.9
		C250.3,1059.3,249.5,1059.2,248.7,1059.1z"/>
	<path class="st0" d="M588.1,1077c-0.8-2.5-2.1-5-2.2-7.5c-0.3-9.4-0.6-18.8,0.1-28.2c0.7-9.5,3.4-17.9,13.6-22.3
		c9.2-4,21.1,1.1,25.2,8.9c4.7,8.9,3.1,19.4-3.3,26.5c-5.5,6-16.7,7.7-24,3.8c-5-2.7-6.4-1.9-6.5,3.9c-0.1,4.8,0,9.7,0,14.5
		C590,1076.7,589.1,1076.9,588.1,1077z M606.4,1054.4c8.6,0.1,15-6.2,14.7-14.9c-0.3-11.3-4.6-14.4-14.4-15.7
		c-7.5-1-14.2,6.5-14.4,14.9C592.3,1047.2,598.6,1054.3,606.4,1054.4z"/>
	<path class="st0" d="M361.5,1056.4c-4.7,1.3-8.9,3.1-13.4,3.7c-13.9,1.7-24-11.9-20.9-25c2.8-11.9,9.9-17.7,20.9-17.4
		c9.3,0.2,18.8,8.9,19.3,18.4c0.3,5.9,0.3,11.9,0,17.8c-0.1,1.4-1.3,3.2-2.5,4.1C364.4,1058.3,362.6,1056.9,361.5,1056.4z
		 M332.7,1039c0.1,9.2,6,15.3,14.9,15.3c7.4,0,14.7-7.7,14.7-15.6c0-7.9-6.7-14.4-15-14.4C338.1,1024.3,332.7,1029.7,332.7,1039z"/>
	<path class="st0" d="M518.8,1051.8c-4.5,7.5-13.2,10.3-20.6,7.6c-10-3.6-16.5-16.8-12.6-26.5c4.2-10.4,9.8-15.4,18.3-15.3
		c9.2,0.1,17,8,17.6,17c0.3,4.8-1.8,6.1-6,6c-6.3-0.2-12.5-0.2-18.8,0c-1.6,0.1-4,0.8-4.6,1.9c-0.6,1.2,0.2,3.5,1.1,4.9
		c4.4,7.1,10.4,8.6,18.6,5.2C513.5,1051.9,515.7,1052.1,518.8,1051.8z M515.5,1034.2c-1.9-7.6-6-10.4-13.4-9.8
		c-5.7,0.5-9.2,4-9.4,9.8C500.2,1034.2,507.8,1034.2,515.5,1034.2z"/>
	<path class="st0" d="M830.6,1051.8c0.1,5.6-3.7,6.7-6.7,7.5c-11.2,3-19.7-0.4-24.2-11.1c-3.1-7.3-2.8-15.6,2.1-22.6
		c3.9-5.5,9.4-8.4,16.4-7.9c8.5,0.5,17.3,9.9,17,18.2c-0.2,3.3-2.2,4.6-5.3,4.6c-6.1,0-12.2-0.2-18.3,0.1c-2.1,0.1-5.5,1.1-5.8,2.2
		c-0.5,2,0.6,4.8,1.9,6.6c4,5.4,9.7,6.3,16.2,3.7C825.8,1052.2,828.1,1052.2,830.6,1051.8z M816.8,1035.6c2.7-0.2,5.7-0.5,8.6-0.8
		c2.8-0.3,3.4-2.3,2.4-4.2c-2.1-3.8-5.4-6.1-10-6.2c-4.4-0.1-8.6,0.5-11.2,4.7c-2.1,3.4-1,5.5,3,6.1
		C811.9,1035.5,814.2,1035.4,816.8,1035.6z"/>
	<path class="st0" d="M719.2,1059.4c-4.6-3.9-7.7-2.1-11.4-0.4c-7.8,3.6-18.3,0.6-23.2-5.8c-6.1-7.9-6.8-18.2-1.7-25.7
		c9.2-13.9,27.8-13.2,35.4,1.4c0.3,0.6,0.8,1.2,0.8,1.8C719.2,1039.8,719.2,1048.9,719.2,1059.4z M714.4,1039.1
		c0.9-8.2-5.6-15.1-14.3-14.8c-8.4,0.4-14.7,6.5-14.5,14.8c0.2,8.5,6.8,15.3,14.7,15.3C708.3,1054.4,714.4,1047.9,714.4,1039.1z"/>
	<path class="st0" d="M437.2,1058.9c0-18.9,0-37.4,0-56c3.9-0.6,4.6,1.7,4.6,4.7c0,6.9,0,13.9,0,20.8c0,2,0,3.9,0,7.3
		c2.5-1.6,4.2-2.3,5.4-3.5c4.2-3.8,8.1-8,12.4-11.7c1.5-1.3,3.4-4.3,5.6-1.2c0.6,0.9-0.4,3.8-1.5,5c-3.1,3.5-6.7,6.6-9.9,10.1
		c-0.7,0.8-0.9,3-0.3,3.9c3.6,5.2,7.5,10.2,11.1,15.5c0.8,1.3,0.5,3.3,0.7,5.1c-1.7-0.6-3.8-0.7-4.9-1.9c-3.3-3.6-5.9-7.9-9.2-11.4
		c-1.5-1.6-4.4-3.3-6-2.8c-1.6,0.5-2.8,3.5-3.4,5.7C441,1052,443.6,1056.9,437.2,1058.9z"/>
	<path class="st0" d="M772.7,1029.1c-6.2-4.5-12.9-7.9-20.3-2c-4.6,3.7-6.3,12.2-3,19c5.4,11,14.5,9.7,24.2,5
		c0.3,0.6,0.6,1.2,0.9,1.8c-1.1,1.5-1.8,3.7-3.3,4.5c-8.1,4.3-16.7,3.6-22-1.3c-7.4-6.9-9.3-16.1-6.3-25
		c2.9-8.7,11.4-14.7,19.9-13.2c3.8,0.7,7.5,2.9,10.7,5.2C775.1,1024.3,776.4,1027.3,772.7,1029.1z"/>
	<path class="st0" d="M551.2,1006.3c0.6,3,1.5,5.7,1.6,8.5c0.1,3.4,1,5.2,4.9,5.1c1.5,0,3.1,1.6,4.7,2.4c-1.6,1-3.2,2.8-4.8,2.9
		c-3.5,0.2-4.6,2-4.6,5c0,4.8,0,9.6,0.1,14.3c0.1,5.2,2.9,8,7.6,9.7c1.3,0.5,2.1,2.2,3.1,3.4c-1.3,0.7-2.5,2-3.8,2.1
		c-6.8,0.5-13.3-6.1-13.7-13.9c-0.3-4.8-0.1-9.6-0.1-14.3c0-2.8,0.3-5.7-3.6-6.5c-0.7-0.1-1.5-1.7-1.5-2.6c0-0.9,1-2.4,1.7-2.4
		c3.6-0.3,3.4-2.7,3.5-5.3C546.1,1011.5,545,1007.7,551.2,1006.3z"/>
	<path class="st0" d="M392.5,1058.6c-0.3-3.2-0.7-6.3-0.8-9.5c-0.2-8.2-0.3-16.5-0.2-24.7c0-3.2,0.9-5.4,5.1-4.3
		c1.7,0.4,3.7-0.7,5.6-1.1c1.4-0.3,2.8-1.1,4.2-1.1c2.3-0.1,5.7-0.9,5.7,2.7c0,1.3-2.8,3.2-4.6,3.7c-9.8,3.1-10.2,3.5-10.3,13.6
		c0,5,0.2,9.9-0.2,14.8c-0.2,2.2-1.6,4.3-2.5,6.5C393.8,1058.9,393.1,1058.8,392.5,1058.6z"/>
	<path class="st0" d="M649.7,1027.9c0-7.1-0.1-14.2,0.1-21.3c0-1.3,1.5-2.7,2.3-4c1,1.4,2.8,2.7,2.8,4.1c0.2,13,0.3,26,0.1,39.1
		c-0.1,4,1.6,6.4,4.8,8.4c1.1,0.6,1.5,2.3,2.3,3.5c-1.3,0.6-2.7,1.8-4,1.8c-4.2,0.1-8.1-4.3-8.2-9.4c-0.2-7.4,0-14.8,0-22.3
		C649.8,1027.9,649.8,1027.9,649.7,1027.9z"/>
</g>
</svg>
